<svg xmlns="http://www.w3.org/2000/svg" viewBox="0 0 800 1000">
  <!-- Background -->
  <rect width="800" height="1000" fill="#f3f4f6"/>
  
  <!-- Header -->
  <rect width="800" height="60" fill="#1f2937"/>
  <text x="20" y="38" font-family="Arial" font-size="24" fill="white">EduPlatform</text>
  <text x="650" y="38" font-family="Arial" font-size="16" fill="white">Login | Register</text>
  
  <!-- Hero Section -->
  <rect y="60" width="800" height="240" fill="#3b82f6"/>
  <text x="50" y="140" font-family="Arial" font-size="36" fill="white">Welcome to EduPlatform</text>
  <text x="50" y="180" font-family="Arial" font-size="20" fill="white">Expand your knowledge with our wide range of subjects</text>
  <rect x="50" y="220" width="180" height="40" rx="20" fill="white"/>
  <text x="80" y="247" font-family="Arial" font-size="16" fill="#3b82f6">Explore Subjects</text>
  
  <!-- Featured Subjects -->
  <text x="50" y="350" font-family="Arial" font-size="24" fill="#1f2937">Featured Subjects</text>
  <rect x="50" y="370" width="220" height="180" fill="white" stroke="#e5e7eb"/>
  <rect x="290" y="370" width="220" height="180" fill="white" stroke="#e5e7eb"/>
  <rect x="530" y="370" width="220" height="180" fill="white" stroke="#e5e7eb"/>
  
  <!-- How It Works -->
  <rect y="600" width="800" height="300" fill="#e5e7eb"/>
  <text x="300" y="640" font-family="Arial" font-size="24" fill="#1f2937">How It Works</text>
  
  <circle cx="150" cy="720" r="30" fill="#3b82f6"/>
  <text x="144" y="728" font-family="Arial" font-size="20" fill="white">1</text>
  <text x="100" y="780" font-family="Arial" font-size="18" fill="#1f2937">Choose a Subject</text>
  
  <circle cx="400" cy="720" r="30" fill="#3b82f6"/>
  <text x="394" y="728" font-family="Arial" font-size="20" fill="white">2</text>
  <text x="340" y="780" font-family="Arial" font-size="18" fill="#1f2937">Enroll in Classes</text>
  
  <circle cx="650" cy="720" r="30" fill="#3b82f6"/>
  <text x="644" y="728" font-family="Arial" font-size="20" fill="white">3</text>
  <text x="600" y="780" font-family="Arial" font-size="18" fill="#1f2937">Attend via Zoom</text>
  
  <!-- Footer -->
  <rect y="950" width="800" height="50" fill="#1f2937"/>
  <text x="20" y="980" font-family="Arial" font-size="14" fill="white">© 2024 EduPlatform. All rights reserved.</text>
</svg>
